<svg width="0" height="0" class="hidden">

<symbol id="product_general" xmlns="http://www.w3.org/2000/svg"  viewBox="0 0 10 12" fill="none">
<title>General</title>
<path d="M7.62224 0H1.66145C0.74386 0 0 0.74386 0 1.66145V9.60063C0 10.5182 0.74386 11.2621 1.66145 11.2621H7.62224C8.53983 11.2621 9.28369 10.5182 9.28369 9.60063V1.66145C9.28369 0.74386 8.53983 0 7.62224 0ZM3.26921 3.14271H6.01445C6.2262 3.14253 6.39799 3.31407 6.39817 3.52582C6.39834 3.73757 6.2268 3.90938 6.01505 3.90953C6.01485 3.90953 6.01465 3.90953 6.01445 3.90953H3.26921C3.05746 3.90953 2.8858 3.73787 2.8858 3.52612C2.8858 3.31437 3.05746 3.14271 3.26921 3.14271ZM7.00239 8.1194H2.2813C2.06955 8.1194 1.89789 7.94774 1.89789 7.73599C1.89789 7.52424 2.06955 7.35258 2.2813 7.35258H7.00239C7.21414 7.35258 7.3858 7.52424 7.3858 7.73599C7.3858 7.94774 7.21414 8.1194 7.00239 8.1194ZM7.00239 6.01446H2.2813C2.06955 6.01446 1.89789 5.84279 1.89789 5.63104C1.89789 5.41929 2.06955 5.24763 2.2813 5.24763H7.00239C7.21414 5.24763 7.3858 5.41929 7.3858 5.63104C7.3858 5.84279 7.21414 6.01446 7.00239 6.01446Z" fill="black"/>
</symbol>

<symbol xmlns="http://www.w3.org/2000/svg" viewBox="0 0 20 20" fill="currentColor" id="menu">
<path
fill-rule="evenodd"
d="M3 5a1 1 0 011-1h12a1 1 0 110 2H4a1 1 0 01-1-1zM3 10a1 1 0 011-1h12a1 1 0 110 2H4a1 1 0 01-1-1zM3 15a1 1 0 011-1h12a1 1 0 110 2H4a1 1 0 01-1-1z"
clip-rule="evenodd"
/>
</symbol>

</svg>