<svg width="0" height="0" class="hidden">

<symbol id="product_general" xmlns="http://www.w3.org/2000/svg"  viewBox="0 0 10 12" fill="none">
<title>General</title>
<path d="M7.62224 0H1.66145C0.74386 0 0 0.74386 0 1.66145V9.60063C0 10.5182 0.74386 11.2621 1.66145 11.2621H7.62224C8.53983 11.2621 9.28369 10.5182 9.28369 9.60063V1.66145C9.28369 0.74386 8.53983 0 7.62224 0ZM3.26921 3.14271H6.01445C6.2262 3.14253 6.39799 3.31407 6.39817 3.52582C6.39834 3.73757 6.2268 3.90938 6.01505 3.90953C6.01485 3.90953 6.01465 3.90953 6.01445 3.90953H3.26921C3.05746 3.90953 2.8858 3.73787 2.8858 3.52612C2.8858 3.31437 3.05746 3.14271 3.26921 3.14271ZM7.00239 8.1194H2.2813C2.06955 8.1194 1.89789 7.94774 1.89789 7.73599C1.89789 7.52424 2.06955 7.35258 2.2813 7.35258H7.00239C7.21414 7.35258 7.3858 7.52424 7.3858 7.73599C7.3858 7.94774 7.21414 8.1194 7.00239 8.1194ZM7.00239 6.01446H2.2813C2.06955 6.01446 1.89789 5.84279 1.89789 5.63104C1.89789 5.41929 2.06955 5.24763 2.2813 5.24763H7.00239C7.21414 5.24763 7.3858 5.41929 7.3858 5.63104C7.3858 5.84279 7.21414 6.01446 7.00239 6.01446Z" fill="black"/>
</symbol>

<symbol xmlns="http://www.w3.org/2000/svg" viewBox="0 0 20 20" fill="currentColor" id="menu">
<path
fill-rule="evenodd"
d="M3 5a1 1 0 011-1h12a1 1 0 110 2H4a1 1 0 01-1-1zM3 10a1 1 0 011-1h12a1 1 0 110 2H4a1 1 0 01-1-1zM3 15a1 1 0 011-1h12a1 1 0 110 2H4a1 1 0 01-1-1z"
clip-rule="evenodd"
/>
</symbol>

<symbol xmlns="http://www.w3.org/2000/svg" viewBox="0 0 48 48" id="site_logo">
<path fill="#00838f" d="M 4 13 h 10 v 29.016 c 0 0.891 -1.077 1.337 -1.707 0.707 l -7.815 -9.163 C 4.17 33.199 4 32.739 4 32.263 V 13 Z" /><path fill="#ef5350" d="M 34 13 h 10 v 19.263 c 0 0.476 -0.17 0.936 -0.478 1.298 l -7.815 9.163 C 35.077 43.353 34 42.907 34 42.016 V 13 Z" /><path fill="#a5d6a7" d="M 12.706 5.266 L 24 16 v 15 L 4 13 l 7.323 -7.704 C 11.702 4.918 12.311 4.905 12.706 5.266 Z" /><path fill="#ffecb3" d="M 36.249 5.255 L 24 16 v 15 l 20 -18 l -6.352 -7.64 C 37.288 4.949 36.666 4.902 36.249 5.255 Z" />
</symbol>

<symbol viewBox="0 0 17 11" xmlns="http://www.w3.org/2000/svg" id="open">
    <title>Combined Shape</title>
    <path d="M15.76 9.065c.642 0 1.163.433 1.163.967 0 .535-.52.968-1.163.968H6.346c-.642 0-1.163-.433-1.163-.968 0-.534.52-.967 1.163-.967zm0-4.533c.642 0 1.163.434 1.163.968s-.52.968-1.163.968H1.163C.521 6.468 0 6.034 0 5.5s.52-.968 1.163-.968zm0-4.532c.642 0 1.163.433 1.163.968 0 .534-.52.967-1.163.967H6.346c-.642 0-1.163-.433-1.163-.967 0-.535.52-.968 1.163-.968z" fill="#767677" fill-rule="evenodd"></path>
  </symbol>


<symbol viewBox="0 0 17 11" xmlns="http://www.w3.org/2000/svg" id="close">
    <title>Combined Shape</title>
    <path d="M1.163 9.065c-.642 0-1.163.433-1.163.967 0 .535.52.968 1.163.968h9.414c.642 0 1.163-.433 1.163-.968 0-.534-.52-.967-1.163-.967zm0-4.533C.521 4.532 0 4.966 0 5.5s.52.968 1.163.968H15.76c.642 0 1.163-.434 1.163-.968s-.52-.968-1.163-.968zm0-4.532C.521 0 0 .433 0 .968c0 .534.52.967 1.163.967h9.414c.642 0 1.163-.433 1.163-.967 0-.535-.52-.968-1.163-.968z" fill="#767677" fill-rule="evenodd"></path>
  </symbol>

  <symbol xmlns="http://www.w3.org/2000/svg" fill="#000000" viewBox="0 0 50 50" id="site_logo_dark">
  <path d="M 46.707 12.293 l -8 -8 c -0.391 -0.391 -1.023 -0.391 -1.414 0 L 25 16.586 L 12.707 4.293 c -0.391 -0.391 -1.023 -0.391 -1.414 0 l -8 8 C 3.105 12.48 3 12.735 3 13 v 23 c 0 0.265 0.105 0.52 0.293 0.707 l 10 10 c 0.286 0.287 0.718 0.372 1.09 0.217 C 14.757 46.769 15 46.404 15 46 V 25.414 l 9.293 9.293 C 24.488 34.902 24.744 35 25 35 s 0.512 -0.098 0.707 -0.293 L 35 25.414 V 46 c 0 0.404 0.243 0.769 0.617 0.924 C 35.741 46.975 35.871 47 36 47 c 0.26 0 0.516 -0.102 0.707 -0.293 l 10 -10 C 46.895 36.52 47 36.265 47 36 V 13 C 47 12.735 46.895 12.48 46.707 12.293 Z" />
  </symbol>

    <symbol xmlns="http://www.w3.org/2000/svg" viewBox="0 0 17 17" id="dashboard">
    <title>Combined Shape</title>
    <path d="M7.556 11.333V17H0v-5.667h7.556zM17 7.556V17H9.444V7.556H17zM7.556 0v9.444H0V0h7.556zM17 0v5.667H9.444V0H17z" fill="#AED569" fill-rule="evenodd"></path>
  </symbol>
  <symbol xmlns="http://www.w3.org/2000/svg" viewBox="0 0 17 17" id="products">
    <title>Combined Shape</title>
    <path d="M3.32 9.522v.858c0 .248.203.45.452.45h1.892a.45.45 0 00.451-.45v-.858h4.77v.858c0 .248.202.45.45.45h1.893a.45.45 0 00.45-.45v-.858h2.411v6.711a.768.768 0 01-.77.767H1.68a.768.768 0 01-.77-.767V9.522h2.41zM11.063 0c.412 0 .746.333.746.744V3.19h4.423c.425 0 .769.344.769.767v4.276h-3.32v-.837a.45.45 0 00-.452-.45h-1.892a.45.45 0 00-.451.45v.837h-4.77v-.837a.45.45 0 00-.45-.45H3.771a.45.45 0 00-.451.45v.837H0V3.958c0-.423.344-.767.77-.767h4.422V.744c0-.411.334-.744.746-.744zm-.747 1.488h-3.63V3.19h3.63V1.488z" fill="#F75F55" fill-rule="evenodd"></path>
  </symbol>
  <symbol xmlns="http://www.w3.org/2000/svg" viewBox="0 0 18 14" id="reports">
    <title>Combined Shape</title>
    <path d="M17.39 0c.337 0 .61.277.61.619V13.38a.614.614 0 01-.61.619H2.708a.614.614 0 01-.61-.619V.62c0-.342.273-.619.61-.619zM1.12 2.127v11.254c0 .22.044.428.122.619H.61a.614.614 0 01-.61-.619V2.746c0-.342.273-.619.61-.619h.511zm14.171 8.632H4.805a.492.492 0 00-.488.495c0 .274.219.495.488.495h10.487a.49.49 0 00.488-.495.492.492 0 00-.488-.495zm-7.34-3.19H4.804a.492.492 0 00-.488.494c0 .274.219.495.488.495H7.95a.49.49 0 00.488-.495.492.492 0 00-.488-.494zm7.34-4.254H10.05a.492.492 0 00-.488.494v4.212c0 .273.218.495.488.495h5.243c.27 0 .489-.222.489-.495V3.809a.492.492 0 00-.489-.494zm-.488.99v3.22h-4.267v-3.22h4.267zM7.951 5.441H4.805a.492.492 0 00-.488.495c0 .273.219.495.488.495h3.146c.27 0 .488-.222.488-.495a.492.492 0 00-.488-.495zm0-2.127H4.805a.492.492 0 00-.488.495c0 .273.219.494.488.494h3.146a.49.49 0 00.488-.494.492.492 0 00-.488-.495z" fill="#DF7AFF" fill-rule="evenodd"></path>
  </symbol>
  <symbol xmlns="http://www.w3.org/2000/svg" viewBox="0 0 16 19" id="subscription">
    <title>Combined Shape</title>
    <path d="M8 0c2.135 2.042 4.66 2.969 7.956 2.969 0 .98.038 2.037.043 3.13v.47c-.024 4.726-.835 9.988-8 12.431C.836 16.557.025 11.294.002 6.57V6.1c.005-1.094.043-2.152.043-3.131C3.34 2.969 5.864 2.042 8 0zm2.123 7.256L7.34 9.993l-1.464-1.44L4.69 9.72l2.65 2.608 3.97-3.904-1.187-1.168z" fill="#34DC0B" fill-rule="evenodd"></path>
  </symbol>
  <symbol xmlns="http://www.w3.org/2000/svg" viewBox="0 0 15 17" id="verification">
    <title>Group 3</title>
    <path d="M14.984 3.684c-.016 4.687-1.934 8.439-5.57 11.345-.471.377-.972.717-1.458 1.076-.31.23-.62.249-.953.033C4.47 14.5 2.423 12.427 1.19 9.63c-.085-.192-.292-.417-.128-.6.151-.168.385.022.572.082.889.287 1.774.585 2.659.884.233.078.459.107.664-.057.328-.261.225-.735-.223-.906-.59-.226-1.193-.414-1.792-.616-.664-.224-1.329-.443-1.992-.668-.39-.132-.815-.956-.693-1.347.078-.25.265-.137.408-.09.875.284 1.748.578 2.62.868.34.112.676.235 1.02.33.446.125.725.012.822-.304.095-.311-.079-.558-.515-.705-1.341-.45-2.684-.895-4.026-1.344-.45-.15-.737-.9-.502-1.312.112-.196.269-.077.4-.035.995.315 1.988.638 2.982.956.287.093.576.184.867.264.437.12.676.027.78-.293.102-.32-.042-.557-.456-.695-1.29-.429-2.583-.85-3.875-1.273-.105-.035-.21-.064-.313-.103-.076-.028-.165-.057-.174-.155-.01-.116.083-.169.17-.206a7.02 7.02 0 01.538-.209C3.008 1.424 5.016.758 7.02.08c.33-.112.635-.103.962.012 2.009.704 4.013 1.421 6.036 2.083.624.204.978.507.944 1.182-.005.109.014.219.022.328" fill="#FB9130" fill-rule="evenodd"></path>
  </symbol>
  <symbol xmlns="http://www.w3.org/2000/svg" viewBox="0 0 20 19" id="orders">
    <title>Fill 1</title>
    <path d="M15.42 15.836c.44 0 .816.153 1.125.459.309.305.463.676.463 1.112 0 .437-.154.811-.463 1.124A1.521 1.521 0 0115.42 19a1.52 1.52 0 01-1.126-.47 1.542 1.542 0 01-.463-1.123c0-.436.154-.807.463-1.112a1.54 1.54 0 011.126-.459m-9.422 0c.441 0 .817.153 1.125.459.31.305.464.676.464 1.112 0 .437-.155.811-.464 1.124A1.52 1.52 0 015.998 19c-.441 0-.816-.156-1.125-.47a1.542 1.542 0 01-.463-1.123c0-.436.154-.807.463-1.112a1.54 1.54 0 011.125-.459m13.79-10.363c.177.218.243.48.199.785l-.839 4.757a.894.894 0 01-.342.61c-.198.16-.422.24-.673.24H5.91l-.243 1.353h11.65c.28 0 .522.098.728.295.206.196.309.44.309.73a.97.97 0 01-.309.732 1.02 1.02 0 01-.728.294H4.432c-.31 0-.574-.124-.795-.37a1.051 1.051 0 01-.242-.852l.551-2.967-.838-8.334-2.383-.742a.973.973 0 01-.607-.502A1.073 1.073 0 01.041.717a.963.963 0 01.518-.6A1.09 1.09 0 011.343.04L4.387 1c.192.059.35.168.475.328s.202.341.231.545l.177 1.658L19.082 5.06c.31.043.544.181.706.414" fill="#2FCC71" fill-rule="evenodd"></path>
  </symbol>
  <symbol xmlns="http://www.w3.org/2000/svg" viewBox="0 0 18 19" id="settings">
    <title>Manage</title>
    <path d="M12.454 9.507c.003-1.874-1.546-3.4-3.452-3.4-1.898 0-3.45 1.516-3.456 3.375-.005 1.877 1.538 3.407 3.442 3.41 1.909.005 3.464-1.514 3.466-3.385M8.007 0h1.986c.033.013.064.032.097.039.878.188 1.497.809 1.64 1.675.04.242.029.493.033.74a1.363 1.363 0 001.692 1.31c.265-.066.51-.222.754-.354 1.01-.545 2.226-.228 2.816.746.243.4.481.803.71 1.21.547.974.22 2.16-.747 2.737-.141.084-.288.16-.427.246a1.338 1.338 0 000 2.302c.134.083.273.156.41.236.99.583 1.317 1.776.754 2.765a55.97 55.97 0 01-.69 1.174c-.6.998-1.817 1.317-2.844.75-.144-.08-.285-.166-.433-.238-.802-.394-1.77.054-1.953.916-.049.232-.037.477-.04.717a2.058 2.058 0 01-1.632 1.984c-.048.01-.093.03-.14.045H8.007c-.032-.013-.063-.032-.096-.039-.892-.191-1.512-.825-1.65-1.716-.037-.236-.019-.48-.024-.72-.022-.996-1.089-1.631-1.996-1.186-.16.079-.312.175-.47.26A2.085 2.085 0 011 14.879a29.097 29.097 0 01-.745-1.265c-.53-.957-.204-2.136.74-2.707.147-.088.3-.166.446-.257a1.338 1.338 0 00-.001-2.3c-.134-.083-.274-.157-.41-.236C.04 7.53-.287 6.337.276 5.347c.224-.394.456-.785.69-1.174.602-.998 1.817-1.317 2.845-.75.144.08.284.167.432.24.803.393 1.771-.055 1.954-.917.049-.232.037-.477.04-.717A2.057 2.057 0 017.868.045c.047-.01.093-.03.14-.045" fill="#CED1E0" fill-rule="evenodd"></path>
  </symbol>
  <symbol xmlns="http://www.w3.org/2000/svg" viewBox="0 0 17 17" id="ram">
    <title>Combined Shape</title>
    <path d="M4.76 0a.967.967 0 01.283.77c-.014.283-.005.566-.002.85.012 1.178-.155 1.061 1.107 1.077.378.005.497-.162.486-.514-.015-.467.004-.934-.004-1.4-.006-.318.08-.586.34-.783h.425c.26.237.344.538.332.88-.008.255 0 .51 0 .764 0 1.13 0 1.124 1.134 1.05.283-.017.413-.132.41-.414-.003-.467.01-.934 0-1.4-.005-.342.072-.644.334-.88h.425c.25.221.35.502.34.832-.009.254-.004.51 0 .763.02 1.217-.21 1.1 1.208 1.095.268-.001.381-.135.38-.395-.003-.509.011-1.018-.001-1.527-.008-.3.068-.556.283-.768h.425c.265.192.352.458.347.776l-.001 1.483c-.004.27.089.406.38.447.555.078.818.342.902.904.043.29.18.383.448.38l1.483-.002c.318-.006.584.081.776.347v.425a.966.966 0 01-.77.283c-.281-.014-.564-.005-.847-.002-.183.002-.334 0-.46-.002l-.17.001c-.407.008-.445.09-.447.64v.506c-.003.332.146.453.463.446.452-.01.904.007 1.357-.003.343-.008.642.073.874.341v.425c-.237.26-.538.345-.88.332-.255-.009-.51 0-.764 0-1.129 0-1.123 0-1.05 1.134.017.283.132.412.414.41.466-.003.933.01 1.4 0 .342-.006.643.074.88.334v.425c-.221.25-.501.351-.832.34-.254-.01-.509-.004-.763 0-1.22.02-1.1-.209-1.095 1.207 0 .269.135.382.395.38l.99.005c.164 0 .329-.001.494-.006.312-.008.587.055.811.284v.425c-.192.266-.458.352-.776.347l-1.483-.001c-.27-.004-.405.088-.447.38-.08.556-.348.824-.903.903-.291.042-.384.178-.38.447l.001 1.483c.006.318-.082.584-.347.776h-.425c-.214-.212-.297-.468-.283-.769.014-.282.006-.565.002-.848-.002-.182 0-.333.002-.459v-.17c-.009-.407-.09-.446-.64-.448h-.507c-.332-.003-.453.145-.446.463.01.452-.007.904.003 1.356.007.344-.074.643-.341.875h-.425c-.261-.237-.344-.538-.332-.88.008-.254 0-.51 0-.764 0-1.13 0-1.123-1.134-1.05-.282.017-.413.131-.41.414.003.466-.01.933 0 1.4.006.342-.075.643-.334.88H6.97c-.259-.2-.342-.472-.338-.785a26.55 26.55 0 00-.002-.807c-.02-1.22.21-1.103-1.205-1.098-.267 0-.384.132-.383.393l-.004.99c0 .165.001.33.006.495.007.313-.054.588-.284.812h-.425c-.267-.19-.352-.458-.347-.776l.001-1.484c.004-.269-.09-.405-.38-.446-.556-.077-.824-.345-.903-.903-.042-.291-.177-.384-.446-.38l-1.484.001c-.318.005-.586-.079-.776-.347v-.425c.212-.215.469-.297.77-.283.282.014.566.005.849.002 1.182-.011 1.061.152 1.078-1.107.005-.378-.162-.497-.514-.486-.466.015-.934-.004-1.4.004-.318.006-.586-.08-.783-.34v-.425c.226-.246.508-.342.838-.332.268.008.537 0 .806 0 1.129 0 1.123 0 1.05-1.134-.017-.283-.132-.412-.414-.41-.467.003-.933-.01-1.4-.001-.342.006-.644-.071-.88-.333V6.97c.189-.243.442-.339.743-.336.283.002.566 0 .849-.004 1.222-.02 1.102.208 1.098-1.205 0-.268-.133-.384-.393-.383l-1.019-.004c-.17 0-.339.001-.509.005-.3.008-.556-.069-.769-.283v-.425c.19-.269.458-.352.776-.347l1.484.001c.27.004.405-.089.445-.38.077-.555.347-.825.904-.903.29-.041.384-.177.38-.447L3.987.775C3.982.457 4.067.19 4.335 0h.425zm.94 6.325c-.195.246-.331.476-.326.795.01.651.06 1.308-.012 1.95-.104.937.202 1.639.938 2.206.259.2.5.351.833.349.92-.008 1.839-.006 2.758-.002.3.001.528-.123.764-.306.753-.582 1.142-1.298.974-2.27-.031-.179-.005-.367-.005-.55 0-.185-.027-.373.005-.552.17-.956-.217-1.656-.948-2.24-.258-.206-.503-.338-.836-.332-.636.012-1.28.068-1.907-.012-.964-.123-1.658.235-2.238.964zm3.844-.024c.594.01 1.143.573 1.157 1.174.008.34.001.679.001 1.018h.002v.764c-.002.977-.469 1.445-1.444 1.447-.58 0-1.16.005-1.74-.003-.66-.008-1.212-.547-1.22-1.197a72.654 72.654 0 010-2.037c.01-.603.562-1.157 1.164-1.167a72.11 72.11 0 012.08 0z" fill="#8F5CDD" fill-rule="evenodd"></path>
  </symbol>
  <symbol xmlns="http://www.w3.org/2000/svg" viewBox="0 0 16 16" id="ship-station">
    <title>Combined Shape</title>
    <path d="M13.811 14.065c.403.506.906.814 1.555.846.264.013.45.135.6.337 0 .239.092.569-.027.69-.117.12-.45.028-.688.028-4.917 0-9.834-.006-14.75.012-.412.002-.563-.085-.479-.492.016-.076.003-.159.003-.238a.752.752 0 01.599-.337c.649-.034 1.152-.34 1.554-.846.49-.617 1.229-.605 1.72.013.88 1.104 2.324 1.117 3.208.028.538-.662 1.24-.662 1.778 0 .885 1.089 2.33 1.076 3.207-.028.49-.617 1.23-.63 1.72-.013zM8.321 7.38c1.698.618 3.4 1.226 5.096 1.847.514.188.607.373.488.918-.183.832-.384 1.659-.563 2.49-.06.281-.194.393-.487.4a1.474 1.474 0 00-1.215.66c-.288.407-.682.62-1.188.612-.455-.004-.813-.195-1.095-.553-.786-.995-1.932-.992-2.725 0-.599.75-1.64.763-2.23-.001-.35-.456-.777-.717-1.347-.725-.228-.003-.337-.106-.385-.317-.206-.921-.42-1.84-.626-2.762-.09-.405.163-.589.486-.707 1.073-.393 2.148-.78 3.222-1.168.637-.23 1.276-.456 1.911-.692a.907.907 0 01.658-.002zm2.087-2.106v.004c.517 0 1.035-.013 1.551.003.48.014.693.201.713.677.03.676.015 1.354.014 2.03 0 .268-.136.305-.367.22A368.987 368.987 0 008.77 6.91c-.22-.08-.315-.208-.31-.441.024-1.408-.198-1.17 1.114-1.195.278-.005.557 0 .835 0zm-4.806.002c.517 0 1.035.005 1.553-.002.266-.003.383.105.378.38-.029 1.401.192 1.07-1 1.51-.934.344-1.875.67-2.805 1.025-.334.127-.434.026-.43-.3.006-.611-.008-1.223.004-1.834.012-.554.229-.765.787-.777.504-.01 1.009-.002 1.513-.002zm4.382-3.291c.479.002.695.196.71.664.018.557 0 1.116.008 1.674.003.293-.139.396-.418.394-.769-.008-1.539-.003-2.308-.003-.73 0-1.46-.014-2.19.007-.386.011-.517-.143-.502-.516.02-.504-.004-1.01.01-1.515.013-.502.218-.703.71-.705 1.327-.005 2.654-.005 3.98 0zM8.234 0c.182.2.31.414.318.702.017.652-.013.675-.676.68-.33.004-.439-.123-.441-.442-.003-.36.046-.684.321-.94h.478z" fill="#FF2C5D" fill-rule="evenodd"></path>
  </symbol>
  <symbol xmlns="http://www.w3.org/2000/svg" viewBox="0 0 17 15" id="social-profile">
    <title>Combined Shape</title>
    <path d="M13.484 10.963a5.56 5.56 0 01.902 3.098c-.007.662-.26.936-.904.937l-2.49.002H3.597c-.774-.002-1.006-.29-1-1.07.022-2.648 1.973-5.023 4.493-5.615 2.461-.577 4.889.297 6.394 2.648zM4.8 7.297c.081.01.202.026.205.13.004.133-.134.171-.226.224-1.263.73-2.203 1.776-2.882 3.074-.14.268-.26.55-.357.838-.225.66-.796.803-1.307.314C.15 11.8.077 11.712 0 11.63v-1.147c.31-.912.72-1.75 1.485-2.376.987-.808 2.113-.957 3.315-.81zM16.837 10.2c.032.11.042.228.163.282v1.147c-.289.283-.58.549-1.025.532-.245-.008-.387-.095-.463-.344-.545-1.78-1.673-3.09-3.177-4.095-.052-.035-.114-.056-.161-.096-.072-.06-.212-.084-.179-.211.03-.111.156-.115.251-.13 2.25-.334 4.01.905 4.59 2.915zM8.514 0c1.73.007 3.217 1.483 3.223 3.243.007 1.898-1.509 3.42-3.253 3.346-1.646.082-3.246-1.383-3.235-3.278C5.259 1.453 6.709-.007 8.514 0zm4.513.92c1.082-.013 2.381 1.02 2.26 2.382.099 1.356-1.126 2.406-2.258 2.369-.267-.009-.364-.053-.237-.351.264-.621.446-1.275.448-1.955a4.862 4.862 0 00-.453-2.066c-.145-.316-.048-.376.24-.38zm-8.863.409a4.797 4.797 0 00-.353 2.756c.061.38.164.745.316 1.093.214.49.218.494-.303.489-.893-.008-1.848-.78-2.06-1.664-.312-1.306.18-2.354 1.366-2.916.243-.116.503-.147.763-.16.35-.019.413.078.271.402z" fill="#1BBC9C" fill-rule="evenodd"></path>
  </symbol>
  <symbol xmlns="http://www.w3.org/2000/svg" viewBox="0 0 17 16" id="store-seo">
    <title>Combined Shape</title>
    <path d="M15.244 8.404c.448-.004.559.14.553.566-.021 1.73-.006 3.46-.01 5.191-.003 1.181-.655 1.826-1.847 1.832-.864.005-1.729-.006-2.592.005-.298.004-.458-.074-.452-.407.014-.872.004-1.745.01-2.617.007-1.228-.83-2.128-1.827-2.339-.976-.206-2.062.331-2.48 1.286-.143.327-.23.667-.222 1.037.02.858-.001 1.717.012 2.575.004.316-.082.473-.437.467-.95-.018-1.902.008-2.852-.014-.894-.02-1.589-.709-1.597-1.595-.017-1.859 0-3.718-.014-5.577-.003-.381.198-.404.49-.403 2.219.006 4.436.003 6.654.003 2.204 0 4.407.012 6.61-.01zM13.752 0c.336 0 .628.125.844.371.681.775 1.364 1.551 1.93 2.416.319.489.467 1.042.47 1.628.003.715.006 1.43.002 2.145-.003.576-.117.644-.687.633-1.195-.025-2.39-.02-3.586-.013-.35.002-.417-.015-.383-.463.162-2.094.126-4.18-1.037-6.066-.155-.251-.359-.287-.617-.289-1.002-.008-1.013-.007-.606.882.649 1.417.971 2.89.872 4.455-.026.405-.08.824.088 1.229.104.25-.117.243-.271.245-.504.006-1.008.003-1.512.003-.893 0-1.786-.002-2.678.001-.286.002-.45-.036-.294-.39.123-.276.07-.597.046-.892-.153-1.79.251-3.46 1.039-5.06.194-.395.132-.415-.314-.48-.742-.108-1.13.218-1.402.871-.467 1.123-.81 2.266-.76 3.49.032.751-.127 1.51.108 2.255.07.221-.153.2-.285.201-.504.008-1.008-.005-1.512.006-.92.02-1.843-.061-2.761.052C.27 7.25.148 7.14 0 7.094v-3.26c.289-.88.85-1.554 1.456-2.195l.408-.424c.273-.282.545-.565.795-.864.208-.247.52-.351.854-.351h10.239z" fill="#604BFF" fill-rule="evenodd"></path>
  </symbol>
  <symbol xmlns="http://www.w3.org/2000/svg" viewBox="0 0 14 10" id="payment">
    <title>Combined Shape</title>
    <path d="M14 3.493v5.195c-.018.049-.038.097-.054.145-.27.79-.775 1.162-1.586 1.165h-1.624c-3.041 0-6.082-.002-9.123.002-.438 0-.82-.128-1.141-.439-.246-.238-.37-.55-.472-.873V3.441c.153-.053.31-.053.47-.053h3.344l9.71.001c.165 0 .337-.025.476.104zM2.857 6.365c-.5-.002-.65.156-.65.68 0 .52.13.655.635.655.516 0 .65-.131.652-.64.001-.533-.145-.693-.637-.695zM12.387 0c.437 0 .82.126 1.14.439.243.239.37.55.473.872v1.143a.64.64 0 01-.292.059H.392c-.134 0-.268.005-.392-.059V1.311c.015-.04.032-.08.046-.12C.33.362.817.004 1.664.002h1.8c2.974 0 5.948.002 8.922-.002z" fill="#02AEFF" fill-rule="evenodd"></path>
  </symbol>
  <symbol xmlns="http://www.w3.org/2000/svg" viewBox="0 0 19 17" id="reviews">
    <title>Fill 1</title>
    <path d="M9.982 15.362c-.51.06-1.213.028-1.914.026-.456-.002-.935.454-1.365.761-1.104.79-2.344.913-3.635.828a1.506 1.506 0 01-.788-.258c-.595-.42-.59-.798.016-1.203.34-.228.657-.469.883-.83.429-.686.417-1.035-.267-1.482-3.603-2.355-4.019-7.677-.367-10.742 3.68-3.09 9.577-3.328 13.361-.392 1.575 1.221 2.721 2.766 3.026 4.808.273 1.83-.288 3.487-1.401 4.886-1.797 2.256-4.244 3.335-7.053 3.634-.1.01-.201-.013-.496-.036" fill="#00BEFF" fill-rule="evenodd"></path>
  </symbol>
  <symbol xmlns="http://www.w3.org/2000/svg" viewBox="0 0 17 15" id="store">
    <title>Shape</title>
    <path d="M16.919 4.5L14.49.3a.608.608 0 00-.528-.3H3.037a.608.608 0 00-.528.3L.081 4.5a.594.594 0 000 .601c.11.186.311.3.528.299h.91v7.8c0 .994.816 1.8 1.822 1.8h10.318a1.81 1.81 0 001.821-1.8V5.4h.91a.608.608 0 00.528-.299.594.594 0 000-.601zm-4.776 6.173c0 .319-.272.577-.607.577H5.464c-.335 0-.607-.258-.607-.577V8.077c0-.319.272-.577.607-.577h6.072c.335 0 .607.258.607.577v2.596z" fill="#8F5CDD" fill-rule="evenodd"></path>
  </symbol>
  <symbol xmlns="http://www.w3.org/2000/svg" viewBox="0 0 17 17" id="withdraw">
    <title>Combined Shape</title>
    <path d="M13.127 3.188c.195 1.57.1 4-1.516 6.651-2.21 3.63-1.264 5.939-1.08 6.317l.021.041.006.01a.534.534 0 01-.463.793H2.657a.532.532 0 01-.46-.267c-.069-.12-1.654-2.98 1.07-7.447 1.494-2.454 1.54-4.717 1.352-6.098zM7.97 12.75a.531.531 0 00-.532.531v1.063a.531.531 0 001.063 0v-1.063a.531.531 0 00-.531-.531zm-.532-5.047c-.878 0-1.593.834-1.593 1.86 0 1.024.715 1.859 1.593 1.859.88 0 1.594-.835 1.594-1.86 0-1.025-.715-1.86-1.594-1.86zM16.47 0c.293 0 .531.238.531.531V7.97a.531.531 0 01-.531.532h-3.011c.302-.76.508-1.492.632-2.182.448-.124.785-.517.785-1.006V3.188c0-.587-.476-1.063-1.063-1.063H3.188c-.587 0-1.063.476-1.063 1.063v2.125c0 .586.476 1.062 1.063 1.062h.177a8.746 8.746 0 01-.88 2.126H.53A.531.531 0 010 7.969V.531C0 .238.238 0 .531 0zM6.906 4.25a.531.531 0 00-.531.532v1.062a.531.531 0 001.063 0V4.782a.531.531 0 00-.532-.532z" fill="#FFAC98" fill-rule="evenodd"></path>
  </symbol>

   <symbol viewBox="0 0 16 19" xmlns="http://www.w3.org/2000/svg" id="bell">
    <title>Combined Shape</title>
    <path d="M9.86 17.122c-.038.197-.052.394-.114.573-.242.696-.724 1.122-1.438 1.267-.034.007-.066.025-.099.038h-.436l-.294-.082c-.782-.223-1.387-1.037-1.326-1.796H9.86zM8.246 0c.025.014.048.033.075.042.802.268 1.13 1.086.74 1.844l-.047.1c.267.08.534.139.787.236 2.131.82 3.402 2.377 3.706 4.682.108.815.05 1.654.059 2.482.007.63.003 1.262 0 1.892-.003.6.252 1.029.787 1.283.192.092.38.192.569.288.82.414 1.226 1.262 1.029 2.155-.188.854-.944 1.455-1.85 1.456l-3.463.002H7.174c-1.758 0-3.515 0-5.273-.002-.909 0-1.63-.573-1.848-1.455-.203-.821.19-1.713.93-2.103.22-.116.442-.23.666-.339.519-.253.766-.676.766-1.259-.001-1.212-.008-2.424.001-3.636.015-2.032.847-3.633 2.477-4.797a5.19 5.19 0 0 1 1.891-.826c.059-.013.117-.03.19-.047-.023-.05-.04-.094-.06-.135-.38-.755-.026-1.587.777-1.825.029-.009.055-.025.082-.038h.473zm-.378 3.79c-1.94.074-3.489 1.623-3.6 3.591 0 .099-.01.186.002.271.021.152.114.244.264.263.157.02.274-.047.333-.196A.659.659 0 0 0 4.9 7.5c.04-1.42 1.007-2.644 2.363-2.967.24-.057.49-.061.737-.093.187-.025.312-.159.31-.328-.002-.177-.137-.31-.333-.323-.036-.003-.072-.001-.109 0zM7.993.626a.63.63 0 0 0-.627.647.624.624 0 1 0 1.25-.014.63.63 0 0 0-.623-.633z" fill="#A5B1C1" fill-rule="evenodd"></path>
   </symbol>


</svg>